<?xml version="1.0" standalone="no"?>
<!DOCTYPE svg PUBLIC "-//W3C//DTD SVG 20010904//EN"
 "http://www.w3.org/TR/2001/REC-SVG-20010904/DTD/svg10.dtd">
<svg version="1.0" xmlns="http://www.w3.org/2000/svg"
 width="417.000000pt" height="417.000000pt" viewBox="0 0 417.000000 417.000000"
 preserveAspectRatio="xMidYMid meet">
<metadata>
Created by potrace 1.11, written by Peter Selinger 2001-2013
</metadata>
<g transform="translate(0.000000,417.000000) scale(0.100000,-0.100000)"
fill="#000000" stroke="none">
<path d="M10 3049 l0 -149 2080 1 2080 1 0 148 0 148 -2080 0 -2080 0 0 -149z"/>
<path d="M0 2330 l0 -240 1066 0 1065 0 -6 -22 c-4 -13 -19 -48 -35 -78 l-28
-55 -1026 -3 -1026 -2 0 -480 0 -480 1935 0 1935 0 0 480 0 480 -112 0 c-105
0 -110 1 -95 18 22 24 37 66 27 81 -5 9 -24 11 -66 7 -63 -7 -122 -12 -274
-22 -52 -3 -106 -8 -120 -9 -14 -2 -30 -3 -37 -4 -6 -1 -21 -17 -33 -36 l-22
-35 -123 0 -123 0 45 80 c25 44 52 80 59 80 17 0 16 3 5 -37 -7 -24 -6 -35 5
-44 11 -9 22 -6 53 15 22 15 47 36 57 47 15 17 31 19 136 19 111 0 118 1 118
20 0 19 7 20 96 20 108 0 127 7 143 51 17 50 6 55 -124 54 l-115 -1 0 168 0
168 -1690 0 -1690 0 0 -240z m2246 -257 c12 -17 14 -17 44 0 23 12 54 17 110
17 73 0 78 -1 73 -20 -3 -11 0 -27 7 -34 15 -20 54 -3 69 30 9 20 18 24 57 24
l46 0 -7 -32 c-4 -18 -18 -54 -31 -80 l-24 -48 -225 0 -224 0 28 63 c16 34 31
70 35 80 3 9 11 17 17 17 7 0 18 -8 25 -17z m644 -20 c-11 -21 -32 -56 -48
-78 -28 -40 -29 -40 -99 -43 l-72 -3 19 38 c10 21 23 57 29 81 l12 42 90 0 89
0 -20 -37z"/>
<path d="M3753 2115 c-14 -11 -25 -33 -26 -50 l-2 -30 160 -3 c88 -1 170 0
183 3 29 7 59 72 42 89 -7 7 -69 11 -172 11 -149 1 -164 -1 -185 -20z"/>
</g>
</svg>
